<?xml version="1.0" encoding="UTF-8"?>
<svg version="1.1" xmlns="http://www.w3.org/2000/svg" width="192" height="192">
<path d="M0 0 C8.96501331 7.71340431 15.17212429 17.27534621 20 28 C20.29777344 28.63164063 20.59554687 29.26328125 20.90234375 29.9140625 C28.19618884 46.96932217 26.00840995 68.30878596 19.60620117 85.21801758 C17.00668222 91.5759524 13.29483649 96.64939224 9 102 C8.67 102.66 8.34 103.32 8 104 C7.34 104 6.68 104 6 104 C5.5978125 104.8971875 5.5978125 104.8971875 5.1875 105.8125 C4.00082594 107.99847854 2.90400887 109.41332594 1 111 C0.34 111 -0.32 111 -1 111 C-1 111.66 -1 112.32 -1 113 C-7.82802496 118.3343945 -15.27437966 122.45266037 -23.375 125.5 C-24.01566406 125.74266602 -24.65632813 125.98533203 -25.31640625 126.23535156 C-43.46400699 132.66184729 -65.88340361 129.89033346 -83 122 C-99.65659818 112.96665972 -110.28196884 100.03714326 -118 83 C-118.51046875 81.92105469 -118.51046875 81.92105469 -119.03125 80.8203125 C-126.13911367 64.25899016 -123.65216393 43.67729067 -117.8125 27.125 C-115.13283513 20.67931963 -111.39125372 15.38965052 -107 10 C-106.44441406 9.29230469 -105.88882813 8.58460937 -105.31640625 7.85546875 C-78.43875961 -24.82310882 -31.63846281 -25.6463297 0 0 Z " fill="#0D6FDD" transform="translate(145,40)"/>
<path d="M0 0 C0.91500275 -0.00960754 1.83000549 -0.01921509 2.7727356 -0.02911377 C3.76538422 -0.03336365 4.75803284 -0.03761353 5.78076172 -0.04199219 C6.80217255 -0.04769226 7.82358337 -0.05339233 8.87594604 -0.05926514 C11.0431006 -0.0687259 13.21026962 -0.07525337 15.37744141 -0.07910156 C18.67620437 -0.08876685 21.97433365 -0.11976369 25.27294922 -0.15136719 C27.37971636 -0.15790129 29.48648795 -0.16315016 31.59326172 -0.16699219 C32.57376495 -0.17933899 33.55426819 -0.19168579 34.56448364 -0.20440674 C41.7672313 -0.18126101 47.43708348 0.75937952 53.31982422 5.24707031 C56.34416679 9.13700059 57.99766799 13.24154854 59.83544922 17.78613281 C62.41547029 24.00101153 64.58869629 28.62648487 69.64794922 33.22363281 C76.20431311 40.30633656 74.48999504 51.12490189 74.19482422 60.15332031 C74.00089544 64.98124498 73.10491103 68.641671 69.58544922 72.16113281 C69.30238688 74.70869385 69.13729136 77.25623303 68.96435547 79.81347656 C68.58544922 82.16113281 68.58544922 82.16113281 66.58544922 84.16113281 C64.05419922 84.42675781 64.05419922 84.42675781 61.08544922 84.41113281 C60.10576172 84.41628906 59.12607422 84.42144531 58.11669922 84.42675781 C55.58544922 84.16113281 55.58544922 84.16113281 53.58544922 82.16113281 C53.58544922 79.52113281 53.58544922 76.88113281 53.58544922 74.16113281 C31.80544922 74.16113281 10.02544922 74.16113281 -12.41455078 74.16113281 C-12.41455078 76.80113281 -12.41455078 79.44113281 -12.41455078 82.16113281 C-14.41455078 84.16113281 -14.41455078 84.16113281 -16.94580078 84.42675781 C-17.92548828 84.42160156 -18.90517578 84.41644531 -19.91455078 84.41113281 C-20.89423828 84.41628906 -21.87392578 84.42144531 -22.88330078 84.42675781 C-25.41455078 84.16113281 -25.41455078 84.16113281 -27.41455078 82.16113281 C-27.7204556 79.69204389 -27.79275106 77.25247906 -27.87548828 74.76660156 C-28.22512439 72.00189622 -28.22512439 72.00189622 -30.40185547 69.88305664 C-35.50845808 62.97700224 -33.54058953 50.62238105 -32.93505859 42.40917969 C-31.76763168 35.12426052 -27.56815121 31.15979905 -22.41455078 26.16113281 C-20.79036362 23.60681521 -19.62016322 20.93301097 -18.41455078 18.16113281 C-10.20740273 0.08643103 -10.20740273 0.08643103 0 0 Z " fill="#F6FAFC" transform="translate(75.41455078125,52.8388671875)"/>
<path d="M0 0 C0.94455551 -0.01268417 1.88911102 -0.02536835 2.86228943 -0.03843689 C3.87590042 -0.03550125 4.88951141 -0.03256561 5.93383789 -0.02954102 C6.98172989 -0.03478287 8.02962189 -0.04002472 9.10926819 -0.04542542 C11.32413853 -0.05184533 13.53904298 -0.05050904 15.75390625 -0.04199219 C19.14067399 -0.03348699 22.5257526 -0.06223783 25.91235352 -0.09399414 C28.0653478 -0.09560638 30.21834507 -0.0950282 32.37133789 -0.09204102 C33.38292465 -0.10327499 34.39451141 -0.11450897 35.43675232 -0.12608337 C39.79155278 -0.08297708 42.4681719 -0.04025383 46.27075195 2.20996094 C47.98162664 4.13673172 49.19062192 5.67209384 50.23852539 8.00561523 C50.53823242 8.66045898 50.83793945 9.31530273 51.14672852 9.98999023 C51.43870117 10.66288086 51.73067383 11.33577148 52.03149414 12.02905273 C52.49845703 13.04999023 52.49845703 13.04999023 52.97485352 14.09155273 C55.21899414 19.08291606 55.21899414 19.08291606 55.21899414 21.40405273 C31.45899414 21.40405273 7.69899414 21.40405273 -16.78100586 21.40405273 C-15.36518861 16.44869238 -14.28081259 13.00991585 -11.90600586 8.65405273 C-11.41358398 7.73108398 -10.92116211 6.80811523 -10.41381836 5.85717773 C-7.6020253 1.63276136 -5.0763541 0.03309492 0 0 Z " fill="#1071DE" transform="translate(76.781005859375,58.595947265625)"/>
<path d="M0 0 C13.86 0 27.72 0 42 0 C43 4 43 4 40 10 C27.46 10 14.92 10 2 10 C-1 4 -1 4 0 0 Z " fill="#1C77DD" transform="translate(75,97)"/>
<path d="M0 0 C27.06 0 54.12 0 82 0 C81.67 1.65 81.34 3.3 81 5 C54.6 5 28.2 5 1 5 C0.67 3.35 0.34 1.7 0 0 Z " fill="#1673DC" transform="translate(55,116)"/>
<path d="M0 0 C1.57897833 1.57897833 1.24543509 3.19362572 1.3125 5.375 C1.34988281 6.16648437 1.38726562 6.95796875 1.42578125 7.7734375 C1 10 1 10 -0.67578125 11.76953125 C-3.48437691 13.25643484 -5.33509458 13.36901617 -8.5 13.3125 C-9.4384375 13.30863281 -10.376875 13.30476563 -11.34375 13.30078125 C-14.06395856 12.99275763 -15.73436471 12.52254849 -18 11 C-18.75 8.375 -18.75 8.375 -19 6 C-13.51681809 0.85951696 -7.41854339 -0.54282025 0 0 Z " fill="#1F79DD" transform="translate(142,92)"/>
<path d="M0 0 C5.29324896 0.27378874 13.05770655 1.05770655 17 5 C17.1875 7.4375 17.1875 7.4375 17 10 C14.50789561 12.49210439 12.99639212 12.26015661 9.58984375 12.2734375 C8.55537109 12.26183594 8.55537109 12.26183594 7.5 12.25 C6.81035156 12.25773437 6.12070312 12.26546875 5.41015625 12.2734375 C0.25333293 12.25333293 0.25333293 12.25333293 -2 10 C-2.265625 8.125 -2.265625 8.125 -2.25 6 C-2.25515625 5.29875 -2.2603125 4.5975 -2.265625 3.875 C-2 2 -2 2 0 0 Z " fill="#1372DD" transform="translate(51,92)"/>
<path d="M0 0 C1.37478516 0.01740234 1.37478516 0.01740234 2.77734375 0.03515625 C3.69644531 0.04417969 4.61554687 0.05320312 5.5625 0.0625 C6.27277344 0.07410156 6.98304687 0.08570312 7.71484375 0.09765625 C5.96484375 5.84765625 5.96484375 5.84765625 3.71484375 8.09765625 C0.08984375 7.72265625 0.08984375 7.72265625 -3.28515625 7.09765625 C-3.32769981 5.09810879 -3.32596408 3.09723989 -3.28515625 1.09765625 C-2.28515625 0.09765625 -2.28515625 0.09765625 0 0 Z " fill="#F0F6FB" transform="translate(45.28515625,73.90234375)"/>
<path d="M0 0 C1.64574566 -0.02688151 3.29161413 -0.04634123 4.9375 -0.0625 C5.85402344 -0.07410156 6.77054688 -0.08570312 7.71484375 -0.09765625 C10 0 10 0 11 1 C11.04080783 2.99958364 11.04254356 5.00045254 11 7 C8.69 7.33 6.38 7.66 4 8 C0 2.25 0 2.25 0 0 Z " fill="#F0F6FB" transform="translate(139,74)"/>
<path d="M0 0 C3.61399517 0.96960846 6.01281558 2.00987867 9 4.3125 C13.48637037 7.74325381 18.7809388 9.17236654 24.0859375 10.88671875 C27 12 27 12 28 14 C17.49382601 12.36973162 7.24234383 7.90940181 0 0 Z " fill="#0A5ABF" transform="translate(50,153)"/>
<path d="M0 0 C3.96 0 7.92 0 12 0 C12 0.33 12 0.66 12 1 C9.03 1 6.06 1 3 1 C4.32 3.64 5.64 6.28 7 9 C6.01 9 5.02 9 4 9 C3.3309224 7.68872739 2.66480194 6.3759455 2 5.0625 C1.62875 4.33160156 1.2575 3.60070312 0.875 2.84765625 C0 1 0 1 0 0 Z " fill="#498ED8" transform="translate(136,73)"/>
<path d="M0 0 C0.99 0 1.98 0 3 0 C1.87548273 2.9719385 0.77706209 5.33440687 -1 8 C-1.99 7.67 -2.98 7.34 -4 7 C-3.525625 6.21625 -3.05125 5.4325 -2.5625 4.625 C-1.66101977 3.11051322 -0.78820515 1.5764103 0 0 Z " fill="#3F87D6" transform="translate(53,74)"/>
</svg>
