<?xml version="1.0" encoding="UTF-8"?>
<svg version="1.1" xmlns="http://www.w3.org/2000/svg" width="512" height="512">
<path d="M0 0 C0.8494519 -0.00012085 1.69890381 -0.0002417 2.57409668 -0.00036621 C20.87051194 0.03650616 39.74171619 0.69155625 56.96142578 7.42651367 C59.46864123 8.38692898 61.98703185 9.18150249 64.5625 9.9375 C65.8 10.30488281 65.8 10.30488281 67.0625 10.6796875 C68.53869038 11.11186166 70.017481 11.53537353 71.5 11.9453125 C79.58589402 14.36495503 86.98192543 18.48808262 94.4375 22.375 C95.54996094 22.9525 96.66242188 23.53 97.80859375 24.125 C101.84356303 26.26840998 105.24999454 28.08982724 108.4375 31.375 C110.08057805 32.32798527 111.72563553 33.27797559 113.38671875 34.19921875 C115.76550487 35.56305613 118.07306768 37.0100879 120.375 38.5 C121.53322266 39.24636719 121.53322266 39.24636719 122.71484375 40.0078125 C123.56755859 40.68457031 123.56755859 40.68457031 124.4375 41.375 C124.4375 42.035 124.4375 42.695 124.4375 43.375 C125.675 44.1175 125.675 44.1175 126.9375 44.875 C128.175 45.6175 128.175 45.6175 129.4375 46.375 C129.4375 47.035 129.4375 47.695 129.4375 48.375 C130.38625 48.6225 131.335 48.87 132.3125 49.125 C135.4375 50.375 135.4375 50.375 136.5 52.1875 C136.9640625 53.2703125 136.9640625 53.2703125 137.4375 54.375 C139.0597454 56.08493434 140.73163425 57.74847684 142.4375 59.375 C144.1416054 61.00336738 145.81775441 62.66269752 147.4375 64.375 C147.4375 65.035 147.4375 65.695 147.4375 66.375 C148.05625 66.6225 148.675 66.87 149.3125 67.125 C151.83328467 68.60781451 152.2227998 69.78363958 153.4375 72.375 C154.4275 73.035 155.4175 73.695 156.4375 74.375 C156.4375 75.035 156.4375 75.695 156.4375 76.375 C157.0975 76.375 157.7575 76.375 158.4375 76.375 C158.953125 77.32375 159.46875 78.2725 160 79.25 C161.69760593 82.24158528 163.58642741 84.98133397 165.625 87.75 C170.26330959 94.26166573 173.84424571 101.3491394 177.45898438 108.46289062 C178.34883948 110.20174919 179.27411463 111.92236688 180.203125 113.640625 C181.4375 116.375 181.4375 116.375 181.4375 120.375 C182.0975 120.705 182.7575 121.035 183.4375 121.375 C198.23814811 154.02801494 199.12112708 192.52726333 194.625 227.5 C194.45991943 228.79156006 194.29483887 230.08312012 194.12475586 231.41381836 C193.24893526 237.58079772 192.18240694 242.78874344 189.4375 248.375 C188.95998382 250.0096718 188.51968934 251.65587876 188.125 253.3125 C184.61021692 266.55634758 179.19694425 278.51176486 172.4375 290.375 C171.94507813 291.25542969 171.45265625 292.13585937 170.9453125 293.04296875 C167.63597424 298.77354602 163.8482323 304.12628992 159.95166016 309.46704102 C158.08987179 312.02307412 156.33776469 314.54866497 154.76171875 317.29296875 C154.32472656 317.98003906 153.88773437 318.66710937 153.4375 319.375 C152.7775 319.375 152.1175 319.375 151.4375 319.375 C151.14875 319.99375 150.86 320.6125 150.5625 321.25 C148.64913272 324.8641382 145.31607125 327.49642875 142.4375 330.375 C141.261875 331.5815625 141.261875 331.5815625 140.0625 332.8125 C137.55762372 335.25773637 134.97248132 337.51577022 132.28125 339.75 C130.82975792 341.02928116 129.44873396 342.38852646 128.09765625 343.7734375 C125.34218767 346.46821294 122.47778332 348.71704186 119.375 351 C118.35277344 351.75539063 117.33054687 352.51078125 116.27734375 353.2890625 C114.87162109 354.32160156 114.87162109 354.32160156 113.4375 355.375 C112.71691406 355.92414063 111.99632812 356.47328125 111.25390625 357.0390625 C109.13544148 358.59715917 106.89638178 359.86919782 104.6015625 361.1484375 C102.97892383 362.06812801 101.37196313 363.01557202 99.7734375 363.9765625 C80.7493768 375.37092076 61.069372 381.81069713 39.61376953 386.8059082 C37.41227366 387.30162055 37.41227366 387.30162055 35.4375 388.375 C6.67988335 391.72179159 -27.21236452 392.29737473 -54.5625 382.375 C-56.24621154 381.88268668 -57.93336827 381.4018695 -59.625 380.9375 C-70.14548686 377.75688769 -79.96892808 373.33107522 -89.6875 368.25 C-90.89587524 367.62049438 -90.89587524 367.62049438 -92.12866211 366.97827148 C-96.30459555 364.7501388 -99.88711128 362.37556325 -103.5625 359.375 C-105.28721627 358.3959992 -107.0123769 357.41765857 -108.74658203 356.45556641 C-111.8726738 354.59537789 -114.66788852 352.33665151 -117.5 350.0625 C-118.10537598 349.58047119 -118.71075195 349.09844238 -119.33447266 348.60180664 C-130.14702723 339.9480036 -130.14702723 339.9480036 -132.5625 337.375 C-132.5625 336.715 -132.5625 336.055 -132.5625 335.375 C-133.490625 335.00375 -133.490625 335.00375 -134.4375 334.625 C-136.96608627 333.13759631 -137.28089004 331.93821991 -138.5625 329.375 C-139.16578125 329.08625 -139.7690625 328.7975 -140.390625 328.5 C-142.98173188 327.15784392 -144.41483578 325.58083192 -146.3125 323.375 C-146.92609375 322.67375 -147.5396875 321.9725 -148.171875 321.25 C-149.5625 319.375 -149.5625 319.375 -149.5625 317.375 C-150.2225 317.375 -150.8825 317.375 -151.5625 317.375 C-152.79280726 315.7761809 -153.94890163 314.11969415 -155.0625 312.4375 C-157.27228178 308.80729314 -157.27228178 308.80729314 -160.5625 306.375 C-161.28240958 304.70079168 -161.9978586 303.02443109 -162.68359375 301.3359375 C-164.12430437 298.12155203 -166.09381911 295.28578891 -168.0625 292.375 C-171.13352341 287.83434492 -173.48645617 283.45389293 -175.5625 278.375 C-176.0575 277.59125 -176.5525 276.8075 -177.0625 276 C-178.76973187 273.01234422 -179.72020742 270.07642434 -180.75 266.8046875 C-181.55147223 264.40797728 -182.50014151 262.13248415 -183.5 259.8125 C-188.53805436 247.29428097 -190.50317429 233.89317275 -192.26391602 220.59130859 C-192.52640014 218.64295953 -192.82662855 216.69977372 -193.1328125 214.7578125 C-193.85836618 208.82642961 -193.74849253 202.83539285 -193.74780273 196.86865234 C-193.74997355 194.77550419 -193.76813537 192.68289803 -193.78710938 190.58984375 C-193.81900277 182.65224958 -193.30230581 175.12764063 -191.98730469 167.28295898 C-191.62192204 164.78176778 -191.51312716 162.57564333 -191.625 160.0625 C-191.5703329 156.83714119 -191.28879736 155.19398435 -190.2421875 152.265625 C-188.8323304 148.20011583 -187.57650477 144.11121102 -186.36962891 139.98144531 C-181.53546327 123.46603352 -175.05055746 108.05314622 -165.7890625 93.48828125 C-164.47471149 91.34829678 -164.47471149 91.34829678 -163.5390625 88.75 C-162.21256799 85.52396535 -160.05345838 83.80934569 -157.5625 81.375 C-154.6637063 77.7831785 -152.006987 74.06193445 -149.5 70.1875 C-147.44406268 67.20307486 -145.15297001 64.90228781 -142.5625 62.375 C-141.82 61.42625 -141.0775 60.4775 -140.3125 59.5 C-137.54659938 56.08433225 -134.14658599 53.67006265 -130.64453125 51.05078125 C-128.21374426 49.09429416 -126.45170927 46.84550443 -124.5625 44.375 C-123.5725 44.045 -122.5825 43.715 -121.5625 43.375 C-120.4796875 42.2921875 -120.4796875 42.2921875 -119.375 41.1875 C-114.62860978 36.44110978 -109.32110631 32.789092 -103.5625 29.375 C-102.60214844 28.77042969 -101.64179688 28.16585937 -100.65234375 27.54296875 C-91.49456776 21.78957045 -82.24371477 16.17966781 -71.79296875 13.11328125 C-69.38625637 12.35909297 -69.38625637 12.35909297 -66.48828125 10.9921875 C-61.6623666 8.89298235 -56.63140832 7.56714239 -51.5625 6.1875 C-50.6034375 5.91486328 -49.644375 5.64222656 -48.65625 5.36132812 C-43.46176378 3.93783911 -38.94870312 3.03836231 -33.5625 3.375 C-33.2325 2.715 -32.9025 2.055 -32.5625 1.375 C-32.2325 1.705 -31.9025 2.035 -31.5625 2.375 C-29.75444577 2.1169545 -27.95487126 1.79953111 -26.16015625 1.4609375 C-17.44264715 0.05293453 -8.81531702 -0.01928391 0 0 Z " fill="#0C6FDF" transform="translate(254.5625,60.625)"/>
<path d="M0 0 C1.60029414 0.0584902 3.20100145 0.10680178 4.80194092 0.14361572 C17.57235996 0.46142964 27.88974027 3.55915593 37.76144409 12.08950806 C42.60671458 17.42137622 45.34517016 24.05236252 48.32394409 30.52700806 C49.23327257 32.34320071 50.14907413 34.15618022 51.07394409 35.96450806 C52.66926753 39.10459891 54.07870904 42.29290627 55.4538269 45.5350647 C57.14672086 49.41057586 58.99818051 53.21278909 60.82394409 57.02700806 C65.18452418 66.13673478 65.18452418 66.13673478 66.88253784 70.31997681 C70.15154761 77.59330206 75.91708422 83.21640792 81.57394409 88.71450806 C88.70533744 95.71505015 94.90690049 105.85261728 95.46438599 116.11140442 C95.47121399 117.08797501 95.47804199 118.06454559 95.4850769 119.07070923 C95.49468445 120.18254074 95.50429199 121.29437225 95.51419067 122.43989563 C95.52056549 124.23678581 95.52056549 124.23678581 95.52706909 126.06997681 C95.53276917 127.30814651 95.53846924 128.54631622 95.54434204 129.82200623 C95.55378946 132.44379828 95.56032499 135.0656022 95.56417847 137.68740845 C95.56856043 140.36332864 95.58244269 143.03892592 95.60519409 145.7147522 C95.63576196 149.5832594 95.64623897 153.45136205 95.65206909 157.31997681 C95.66441589 158.50778244 95.6767627 159.69558807 95.68948364 160.91938782 C95.65882281 172.43947546 92.7637046 181.31013891 85.13644409 190.02700806 C83.32394409 191.52700806 83.32394409 191.52700806 81.32394409 191.52700806 C81.34489136 192.22261841 81.36583862 192.91822876 81.38742065 193.63491821 C81.47091389 196.80713264 81.52270938 199.97911537 81.57394409 203.15200806 C81.60745972 204.24642212 81.64097534 205.34083618 81.67550659 206.46841431 C81.75043153 212.64972139 81.73072889 216.76583148 77.32394409 221.52700806 C74.03531414 224.55459961 71.8139021 224.90294505 67.38644409 224.89028931 C65.67328003 224.88932251 65.67328003 224.88932251 63.92550659 224.88833618 C62.73699097 224.8722229 61.54847534 224.85610962 60.32394409 224.83950806 C59.13542847 224.84273071 57.94691284 224.84595337 56.72238159 224.84927368 C46.49535759 224.78578764 46.49535759 224.78578764 43.32394409 222.52700806 C40.32394409 217.52700806 40.32394409 217.52700806 40.32394409 197.52700806 C-17.75605591 197.52700806 -75.83605591 197.52700806 -135.67605591 197.52700806 C-135.67605591 204.12700806 -135.67605591 210.72700806 -135.67605591 217.52700806 C-140.67605591 223.52700806 -140.67605591 223.52700806 -142.67605591 224.52700806 C-146.77463866 224.79737933 -150.88206634 224.75864477 -154.98855591 224.77700806 C-156.70075317 224.80794556 -156.70075317 224.80794556 -158.44754028 224.83950806 C-159.55033325 224.84466431 -160.65312622 224.84982056 -161.78933716 224.85513306 C-162.79778687 224.86447876 -163.80623657 224.87382446 -164.84524536 224.88345337 C-169.04954505 224.35406333 -171.54193507 222.68545898 -174.47415161 219.69033813 C-176.01233678 216.9217298 -175.98601424 215.06923002 -175.90652466 211.91372681 C-175.90588013 210.83026978 -175.9052356 209.74681274 -175.90457153 208.63052368 C-175.87736463 206.36457715 -175.83068338 204.09877563 -175.76394653 201.83364868 C-175.67292148 195.66713266 -175.67292148 195.66713266 -178.40725708 190.37173462 C-179.81164902 189.19736824 -181.25533004 188.06820345 -182.73635864 186.99209595 C-185.35193856 185.01650185 -186.39575828 182.90966483 -187.61355591 179.90200806 C-187.99382935 179.00224243 -188.37410278 178.10247681 -188.76589966 177.17544556 C-190.28431812 172.75704335 -190.80477929 168.65507586 -190.85305786 163.99331665 C-190.8658931 162.9080368 -190.87872833 161.82275696 -190.89195251 160.70458984 C-190.89933945 159.53997223 -190.90672638 158.37535461 -190.91433716 157.17544556 C-190.92644478 155.3607225 -190.92644478 155.3607225 -190.938797 153.50933838 C-190.95261678 150.94899927 -190.96334833 148.38864189 -190.97122192 145.82827759 C-190.98273073 143.22145149 -191.00316481 140.61464875 -191.03274536 138.00796509 C-191.07560267 134.23029654 -191.09161787 130.45332764 -191.10183716 126.67544556 C-191.11934525 125.52297333 -191.13685333 124.3705011 -191.15489197 123.18310547 C-191.12107993 110.421478 -186.65617484 98.49969567 -177.60964966 89.32778931 C-175.93691658 87.66824246 -174.25035975 86.03336112 -172.52200317 84.43179321 C-163.62633066 76.04730488 -159.14675637 65.4629076 -154.30105591 54.46450806 C-150.47329596 45.83023193 -146.60632013 37.2345234 -142.38308716 28.78482056 C-142.05567535 28.12960922 -141.72826355 27.47439789 -141.39093018 26.79933167 C-135.54893293 15.2311369 -129.17298965 7.71410083 -117.20730591 2.25357056 C-82.43202628 -7.72822267 -35.72205676 -1.36832724 0 0 Z " fill="#FAFDFE" transform="translate(303.6760559082031,141.47299194335938)"/>
<path d="M0 0 C1.66122971 -0.0032302 3.32245917 -0.00659543 4.98368835 -0.01008606 C8.44689591 -0.01602298 11.91007874 -0.01793184 15.37329102 -0.01733398 C18.86260201 -0.01725312 22.35178061 -0.0241416 25.84106445 -0.0378418 C42.49900766 -0.10177721 59.16829267 -0.14746269 75.8046875 0.8046875 C77.40694939 0.87101128 77.40694939 0.87101128 79.0415802 0.93867493 C87.61532147 1.54778202 92.01511555 4.85886555 97.953125 10.796875 C101.52892865 15.40074088 103.80588816 20.8553688 106.26171875 26.10546875 C106.78733398 27.21615723 107.31294922 28.3268457 107.85449219 29.47119141 C118.32421875 51.78345741 118.32421875 51.78345741 118.32421875 57.16796875 C54.96421875 57.16796875 -8.39578125 57.16796875 -73.67578125 57.16796875 C-72.72895337 52.43382934 -71.21708858 48.5151462 -69.23828125 44.16796875 C-68.71355225 43.00720825 -68.71355225 43.00720825 -68.17822266 41.82299805 C-67.41954938 40.15308678 -66.65737266 38.48476371 -65.89208984 36.81787109 C-65.06243188 35.01034248 -64.23742951 33.20067145 -63.41650391 31.38916016 C-62.14082333 28.58013966 -60.84818332 25.7795142 -59.55078125 22.98046875 C-59.15576416 22.10841797 -58.76074707 21.23636719 -58.35375977 20.33789062 C-55.20307244 13.62784127 -51.23737287 7.03557356 -44.67578125 3.16796875 C-30.80352103 -1.14892342 -14.42451743 0.00676153 0 0 Z " fill="#0C6FDE" transform="translate(233.67578125,156.83203125)"/>
<path d="M0 0 C0.83325491 0.00446144 1.66650982 0.00892289 2.52501488 0.01351953 C3.84853242 0.00883955 3.84853242 0.00883955 5.19878769 0.00406504 C8.17299399 -0.00395019 11.14699825 0.00242235 14.12120628 0.00869775 C16.24630923 0.00598945 18.37141124 0.00242943 20.49651146 -0.00192237 C26.28149005 -0.01106782 32.06639759 -0.00749325 37.85137749 -0.0011642 C43.89363363 0.00388467 49.93588351 -0.00079254 55.97813988 -0.00393653 C66.1267513 -0.00757943 76.27533365 -0.00276858 86.42394066 0.00674462 C98.17211232 0.01762978 109.92021457 0.01410443 121.66838455 0.00309181 C131.73886715 -0.00597184 141.80932879 -0.00727087 151.87981415 -0.00203085 C157.9015943 0.00109394 163.92334178 0.0014843 169.94511986 -0.00510383 C175.6052559 -0.01086328 181.2653021 -0.00690617 186.92542839 0.00468469 C189.00801252 0.0073388 191.09060416 0.00655348 193.17318535 0.00215936 C196.0057347 -0.00326802 198.83799217 0.00350367 201.67052269 0.01351953 C202.5037776 0.00905808 203.33703251 0.00459664 204.19553757 0 C209.86946873 0.03918676 209.86946873 0.03918676 212.09776878 2.26748681 C212.43723387 5.93370978 212.5878266 8.38071553 210.78526878 11.64248681 C207.16970493 15.12414089 202.56774928 14.4130304 197.87416649 14.40792871 C197.02575215 14.41089983 196.17733782 14.41387095 195.30321395 14.41693211 C192.44972885 14.42562954 189.59628564 14.42712823 186.74278831 14.42861962 C184.70122246 14.43324701 182.65965747 14.43827156 180.61809349 14.44366479 C175.06439386 14.45679732 169.51070632 14.46323526 163.95699358 14.46767545 C160.48931814 14.47060443 157.02164602 14.47470888 153.55397224 14.47917962 C142.71026662 14.49285599 131.86656857 14.50252231 121.02285492 14.50638151 C108.49421512 14.51086458 95.9656843 14.52842345 83.43707764 14.55738211 C73.75973445 14.57897608 64.08242197 14.58908455 54.40505493 14.59042263 C48.62181912 14.59147218 42.83868573 14.59741194 37.05547523 14.61524224 C31.61690462 14.6316837 26.17851385 14.63389753 20.73992729 14.62510324 C18.742449 14.62433079 16.7449612 14.62870279 14.7475071 14.63856149 C12.02323493 14.65122032 9.29960559 14.64543731 6.57533836 14.63497949 C5.78263168 14.64303589 4.98992501 14.6510923 4.17319691 14.65939283 C-0.3539285 14.61867354 -3.3120582 14.09707657 -6.90223122 11.26748681 C-8.40885219 8.25424486 -8.07993494 5.58462304 -7.90223122 2.26748681 C-5.3084726 -0.3262718 -3.5338175 0.02440616 0 0 Z " fill="#0D6CDA" transform="translate(153.90223121643066,308.7325131893158)"/>
<path d="M0 0 C0.92541595 -0.00563965 1.85083191 -0.0112793 2.80429077 -0.01708984 C3.82253937 -0.01304138 4.84078796 -0.00899292 5.88989258 -0.00482178 C6.95986481 -0.00832642 8.02983704 -0.01183105 9.13223267 -0.01544189 C12.68302829 -0.0242729 16.23362604 -0.01840516 19.78442383 -0.01165771 C22.24300169 -0.01300397 24.7015793 -0.01494417 27.16015625 -0.01745605 C32.31846648 -0.02040918 37.47670756 -0.01610359 42.63500977 -0.0067749 C49.2599386 0.00461967 55.88470541 -0.00193879 62.5096283 -0.01391983 C67.58810658 -0.02113332 72.66654621 -0.01885284 77.74502563 -0.01366425 C80.18836486 -0.01232634 82.63170755 -0.01398037 85.07504272 -0.01862335 C88.4847753 -0.02368017 91.89424237 -0.01599011 95.30395508 -0.00482178 C96.83132797 -0.01089447 96.83132797 -0.01089447 98.38955688 -0.01708984 C99.31497284 -0.0114502 100.24038879 -0.00581055 101.19384766 0 C102.00058426 0.00075405 102.80732086 0.0015081 103.63850403 0.002285 C105.59692383 0.25396729 105.59692383 0.25396729 107.59692383 2.25396729 C108.21580864 8.93792326 107.38560724 16.11535601 104.59692383 22.25396729 C99.53408584 26.60555312 95.54097807 26.82647714 89.18261719 26.75567627 C87.78883598 26.76378075 87.78883598 26.76378075 86.36689758 26.77204895 C83.30652668 26.78451964 80.24709947 26.76805722 77.18676758 26.75006104 C75.05497692 26.75021605 72.92318597 26.75170541 70.79139709 26.75447083 C66.32857775 26.75585403 61.8660801 26.74330849 57.40332031 26.72052002 C51.68446379 26.69211864 45.96614096 26.69487856 40.24724483 26.70761013 C35.84716741 26.71456612 31.44721325 26.70677917 27.04715157 26.6943531 C24.93843623 26.68983906 22.82970766 26.68950139 20.72099113 26.6934185 C17.77433018 26.69633032 14.82840402 26.67982536 11.88183594 26.65802002 C10.57643356 26.66477249 10.57643356 26.66477249 9.24465942 26.67166138 C4.56833268 26.61419298 1.34795088 26.36297823 -2.40307617 23.25396729 C-6.01899962 16.40954075 -6.78342464 9.86093667 -6.40307617 2.25396729 C-3.96168544 -0.18742345 -3.34698955 0.00312841 0 0 Z " fill="#0E70DC" transform="translate(205.403076171875,259.74603271484375)"/>
<path d="M0 0 C3.74590865 0.40716398 5.23685837 1.67435837 7.875 4.3125 C10.33572828 7.97795983 10.14215389 11.42293091 10.125 15.75 C10.13273437 17.69712891 10.13273437 17.69712891 10.140625 19.68359375 C9.78379944 24.55846056 9.04279248 27.23453771 5.4375 30.5625 C-3.94674849 36.97125506 -21.78329943 35.24540698 -32.625 33.75 C-36.97595626 32.7232892 -39.48993924 30.91424994 -42.12109375 27.30859375 C-43.98079416 23.6109015 -43.84360042 21.42812059 -43.125 17.3125 C-38.15717386 9.56853573 -31.69222276 8.12029752 -23.22265625 6.13671875 C-20.28493447 5.35505507 -17.60900148 4.37014261 -14.8125 3.1875 C-9.87481694 1.11762326 -5.30065122 0.53006512 0 0 Z " fill="#106FDB" transform="translate(372.125,244.6875)"/>
<path d="M0 0 C0.6496875 0.22308838 1.299375 0.44617676 1.96875 0.67602539 C3.37561235 1.14295249 4.78318067 1.60775723 6.19140625 2.07055664 C6.89410645 2.30210449 7.59680664 2.53365234 8.32080078 2.7722168 C10.29556173 3.39132354 12.27099762 3.93164346 14.27734375 4.43774414 C21.36029711 6.2446978 27.1659789 8.14044935 32.40625 13.42602539 C34.02899042 16.67150623 33.95492929 19.91839708 33.40625 23.42602539 C30.95270155 27.76062766 28.75761627 29.61007893 24.09375 31.30102539 C16.95590715 33.08812975 9.694496 32.82254048 2.40625 32.42602539 C1.67905762 32.38880371 0.95186523 32.35158203 0.20263672 32.31323242 C-1.96400868 32.18234192 -4.12008746 32.00220943 -6.28125 31.80102539 C-7.56386719 31.68500977 -8.84648437 31.56899414 -10.16796875 31.44946289 C-14.81089369 30.06240892 -15.93044778 28.42839051 -18.59375 24.42602539 C-20.85519885 18.73881738 -20.81144591 10.44300332 -18.546875 4.83227539 C-13.82617114 -2.83192617 -8.46501297 -2.76264476 0 0 Z " fill="#0E6FDD" transform="translate(149.59375,246.573974609375)"/>
<path d="M0 0 C-0.54810918 4.88854131 -2.0239388 8.44468119 -4.375 12.75 C-4.98085937 13.87921875 -5.58671875 15.0084375 -6.2109375 16.171875 C-8 19 -8 19 -11 21 C-17.47104519 21.71900502 -23.47307953 21.78157716 -29 18 C-31.45993942 15.54006058 -31.34992473 14.64998115 -31.4375 11.25 C-31.36907338 7.60759827 -31.05263957 5.36235811 -28.75 2.5 C-20.74845204 -4.77413451 -9.76543915 -2.64825468 0 0 Z " fill="#F3F9FC" transform="translate(142,197)"/>
<path d="M0 0 C4.23151982 4.70168868 5.35496755 7.60145461 5.28515625 13.8046875 C5 16 5 16 3.25 18.5 C-0.598869 21.06591267 -4.37105296 21.22528043 -8.9375 21.375 C-10.46697266 21.44847656 -10.46697266 21.44847656 -12.02734375 21.5234375 C-16.11762729 20.8032036 -17.41982191 19.20357683 -20 16 C-21.80078125 12.7734375 -21.80078125 12.7734375 -23.3125 9.375 C-23.82425781 8.24835938 -24.33601563 7.12171875 -24.86328125 5.9609375 C-26 3 -26 3 -26 0 C-17.81819217 -2.56684167 -7.90253301 -4.01311242 0 0 Z " fill="#F2F8FB" transform="translate(396,197)"/>
<path d="M0 0 C0 0.99 0 1.98 0 3 C0.32326553 6.59679066 0.32326553 6.59679066 1 10 C4.23402214 11.61701107 7.7742223 11.13282901 11.32681274 11.12025452 C12.634071 11.12153615 12.634071 11.12153615 13.96773851 11.12284368 C16.90510792 11.12449848 19.84242096 11.1189771 22.77978516 11.11352539 C24.87857563 11.11324349 26.9773662 11.1134013 29.07615662 11.1139679 C34.7886745 11.11425577 40.50117154 11.10836066 46.21368456 11.10139394 C52.17813036 11.09515873 58.14257659 11.09455647 64.10702515 11.09336853 C75.40819833 11.09025571 86.70936189 11.08204298 98.01053083 11.07201904 C110.87369274 11.06085638 123.7368551 11.05534707 136.60002065 11.05032361 C163.06668578 11.03986033 189.53334235 11.02226184 216 11 C215.67 11.66 215.34 12.32 215 13 C211.22779578 14.25740141 207.706084 14.14471327 203.77639771 14.14044189 C202.92798337 14.14341302 202.07956903 14.14638414 201.20544517 14.1494453 C198.35196006 14.15814273 195.49851686 14.15964142 192.64501953 14.16113281 C190.60345367 14.1657602 188.56188868 14.17078475 186.52032471 14.17617798 C180.96662507 14.18931051 175.41293753 14.19574845 169.8592248 14.20018864 C166.39154935 14.20311762 162.92387723 14.20722207 159.45620346 14.21169281 C148.61249784 14.22536918 137.76879979 14.2350355 126.92508614 14.2388947 C114.39644634 14.24337776 101.86791551 14.26093664 89.33930886 14.2898953 C79.66196566 14.31148927 69.98465318 14.32159774 60.30728614 14.32293582 C54.52405034 14.32398537 48.74091695 14.32992512 42.95770645 14.34775543 C37.51913584 14.36419689 32.08074507 14.36641072 26.64215851 14.35761642 C24.64468022 14.35684398 22.64719242 14.36121598 20.64973831 14.37107468 C17.92546614 14.38373351 15.20183681 14.3779505 12.47756958 14.36749268 C11.6848629 14.37554908 10.89215622 14.38360548 10.07542813 14.39190602 C5.54830271 14.35118673 2.59017302 13.82958976 -1 11 C-2.50662097 7.98675805 -2.17770373 5.31713623 -2 2 C-1.34 1.34 -0.68 0.68 0 0 Z " fill="#377AC4" transform="translate(148,309)"/>
<path d="M0 0 C2 2 2 2 3 8 C-60.36 8 -123.72 8 -189 8 C-188 3 -188 3 -186 1 C-186 2.65 -186 4.3 -186 6 C-124.29 6 -62.58 6 1 6 C0.67 4.02 0.34 2.04 0 0 Z " fill="#3178CC" transform="translate(349,206)"/>
<path d="M0 0 C58.08 0 116.16 0 176 0 C176.33 6.6 176.66 13.2 177 20 C178.30313541 24.92520016 178.30313541 24.92520016 180.75390625 25.80200195 C185.83045037 26.24951035 190.90730436 26.18473823 196 26.1875 C197.18851563 26.19974609 198.37703125 26.21199219 199.6015625 26.22460938 C200.74367188 26.22654297 201.88578125 26.22847656 203.0625 26.23046875 C204.62677734 26.23663208 204.62677734 26.23663208 206.22265625 26.24291992 C208.99861489 26.00012115 210.63769554 25.42934999 213 24 C213 24.99 213 25.98 213 27 C208.27618879 30.14920747 203.30454499 29.32826205 197.75 29.3125 C196.06970703 29.33666992 196.06970703 29.33666992 194.35546875 29.36132812 C188.12155614 29.36500812 183.50068679 29.01265938 178 26 C178 25.34 178 24.68 178 24 C177.34 24 176.68 24 176 24 C176 23.01 176 22.02 176 21 C175.34 21 174.68 21 174 21 C174 14.4 174 7.8 174 1 C116.91 1 59.82 1 1 1 C1 6.61 1 12.22 1 18 C0.67 18 0.34 18 0 18 C0 12.06 0 6.12 0 0 Z " fill="#2C66AD" transform="translate(168,339)"/>
<path d="M0 0 C2.56680922 0.01072551 5.13291885 0.00004309 7.69970703 -0.01269531 C17.02883469 -0.01943991 25.89179702 0.43740162 35.07080078 2.26074219 C35.07080078 2.92074219 35.07080078 3.58074219 35.07080078 4.26074219 C34.06927979 4.23044922 33.06775879 4.20015625 32.03588867 4.16894531 C28.23192535 4.05457241 24.42786878 3.9435859 20.6237793 3.83349609 C18.99387029 3.78588185 17.36398597 3.73741301 15.73413086 3.68798828 C-6.0336803 2.57066982 -6.0336803 2.57066982 -27.61669922 4.63574219 C-28.34824219 4.76207031 -29.07978516 4.88839844 -29.83349609 5.01855469 C-34.01737519 5.77172824 -37.89941671 6.88746435 -41.92919922 8.26074219 C-43.61032978 8.58712501 -45.29849213 8.87927496 -46.99169922 9.13574219 C-55.11001549 10.55147037 -63.16531149 12.67051665 -70.49169922 16.51074219 C-73.92919922 18.26074219 -73.92919922 18.26074219 -77.92919922 18.26074219 C-77.43419922 16.77574219 -77.43419922 16.77574219 -76.92919922 15.26074219 C-75.10888672 14.41699219 -75.10888672 14.41699219 -72.80419922 13.76074219 C-70.01563484 12.9502252 -67.47070464 12.05562619 -64.81201172 10.86621094 C-60.00275536 8.76613869 -54.98349674 7.44890784 -49.92919922 6.07324219 C-48.97013672 5.80060547 -48.01107422 5.52796875 -47.02294922 5.24707031 C-41.828463 3.8235813 -37.31540234 2.92410449 -31.92919922 3.26074219 C-31.59919922 2.60074219 -31.26919922 1.94074219 -30.92919922 1.26074219 C-30.43419922 1.75574219 -30.43419922 1.75574219 -29.92919922 2.26074219 C-28.14079283 1.99828774 -26.36080618 1.6785544 -24.58544922 1.33886719 C-16.38325082 0.00914397 -8.29472977 -0.04116491 0 0 Z " fill="#0750BB" transform="translate(252.92919921875,60.7392578125)"/>
<path d="M0 0 C0.66 0 1.32 0 2 0 C0.47703455 3.86398092 -1.82618071 5.71920742 -5.0625 8.25 C-16.64833567 17.50352365 -25.82009032 27.39735127 -35 39 C-35.71285156 39.8765625 -36.42570312 40.753125 -37.16015625 41.65625 C-38.78284892 43.72337442 -39.93758549 45.60956735 -41 48 C-41.66 48 -42.32 48 -43 48 C-43.27199219 48.72832031 -43.54398438 49.45664063 -43.82421875 50.20703125 C-44.95760494 52.89929413 -46.26398973 55.21560366 -47.8125 57.6875 C-51.96039899 64.49612444 -55.51107389 71.38961885 -58.17578125 78.90625 C-59.81661359 83.07443073 -61.93999218 87.02654618 -64 91 C-66.17463298 84.32373825 -61.1980651 77.0652167 -58.1875 71.125 C-57.83929199 70.43172607 -57.49108398 69.73845215 -57.13232422 69.02416992 C-54.7072873 64.25019092 -52.10125125 59.63409065 -49.2265625 55.11328125 C-47.91221149 52.97329678 -47.91221149 52.97329678 -46.9765625 50.375 C-45.65006799 47.14896535 -43.49095838 45.43434569 -41 43 C-38.1012063 39.4081785 -35.444487 35.68693445 -32.9375 31.8125 C-30.88156268 28.82807486 -28.59047001 26.52728781 -26 24 C-25.2575 23.05125 -24.515 22.1025 -23.75 21.125 C-20.98409938 17.70933225 -17.58408599 15.29506265 -14.08203125 12.67578125 C-11.65124426 10.71929416 -9.88920927 8.47050443 -8 6 C-7.01 5.67 -6.02 5.34 -5 5 C-4.154375 4.154375 -3.30875 3.30875 -2.4375 2.4375 C-1.633125 1.633125 -0.82875 0.82875 0 0 Z " fill="#0953B9" transform="translate(138,99)"/>
<path d="M0 0 C5.53735662 3.6162329 10.09111407 7.61785615 14 13 C14 13.66 14 14.32 14 15 C14.61875 15.2475 15.2375 15.495 15.875 15.75 C18.39578467 17.23281451 18.7852998 18.40863958 20 21 C20.99 21.66 21.98 22.32 23 23 C23 23.66 23 24.32 23 25 C23.66 25 24.32 25 25 25 C25.515625 25.94875 26.03125 26.8975 26.5625 27.875 C28.26010593 30.86658528 30.14892741 33.60633397 32.1875 36.375 C36.82580959 42.88666573 40.40674571 49.9741394 44.02148438 57.08789062 C44.91133948 58.82674919 45.83661463 60.54736688 46.765625 62.265625 C48 65 48 65 48 69 C48.99 69.495 48.99 69.495 50 70 C53.27615244 77.2817607 56.5046807 85.92510885 56 94 C53.70816106 91.70816106 53.1376189 90.03969359 52.0625 87 C51.711875 86.01 51.36125 85.02 51 84 C50.11564956 81.34694868 49.321466 78.69087944 48.5625 76 C44.62775669 62.6679176 37.29362242 49.30150134 29.32421875 37.9296875 C28 36 28 36 26.640625 33.6640625 C24.65469106 30.43928406 22.40140092 27.47163298 20.0625 24.5 C19.5888501 23.89559082 19.1152002 23.29118164 18.62719727 22.66845703 C14.62332854 17.63304101 10.34762244 12.89541329 5.88500977 8.26367188 C3.41026201 5.66945354 1.35332264 3.34727139 0 0 Z " fill="#0952B9" transform="translate(388,112)"/>
<path d="M0 0 C1.485 0.99 1.485 0.99 3 2 C3 3.32 3 4.64 3 6 C5.69335406 6.89778469 7.27711734 7.13316924 10.04325867 7.15821838 C10.8635556 7.1680072 11.68385254 7.17779602 12.52900696 7.18788147 C13.42524277 7.19363693 14.32147858 7.1993924 15.24487305 7.20532227 C16.66467468 7.22017166 16.66467468 7.22017166 18.11315918 7.23532104 C21.24598681 7.26694239 24.37882961 7.29169606 27.51171875 7.31640625 C29.68219907 7.33697522 31.85267537 7.35797168 34.02314758 7.37937927 C39.73923496 7.43460577 45.45535853 7.48401255 51.17150879 7.53222656 C57.00304387 7.58243733 62.83452633 7.63812562 68.66601562 7.69335938 C80.11063214 7.80094804 91.55529432 7.90239148 103 8 C103 8.66 103 9.32 103 10 C90.56954408 10.06949495 78.13913434 10.12280882 65.70852375 10.15543652 C59.93655348 10.17109577 54.16471607 10.19233903 48.39282227 10.22631836 C42.8231545 10.25890217 37.25361459 10.27685106 31.68385887 10.28463173 C29.55837173 10.29017696 27.43289163 10.30100536 25.30745888 10.31719017 C22.33152746 10.33895116 19.35612507 10.34196745 16.38012695 10.34057617 C15.06058517 10.35675491 15.06058517 10.35675491 13.71438599 10.3732605 C8.98266017 10.34930661 5.83944253 10.08520394 2 7 C0.26476072 4.35582586 0 3.21534057 0 0 Z " fill="#1B62B6" transform="translate(201,276)"/>
<path d="M0 0 C3.4048941 0.01135945 6.80947417 0.00464505 10.21435738 -0.00688934 C28.385056 -0.058946 46.29944107 0.57191404 64.28588867 3.26074219 C64.28588867 3.59074219 64.28588867 3.92074219 64.28588867 4.26074219 C63.56380722 4.23077652 62.84172577 4.20081085 62.09776306 4.16993713 C39.57126531 3.26676423 17.07782378 3.13464134 -5.46411133 3.19207764 C-10.02465326 3.20253855 -14.58520134 3.20692258 -19.14575195 3.21191406 C-28.00188776 3.22245448 -36.85799501 3.23938651 -45.71411133 3.26074219 C-45.71411133 2.93074219 -45.71411133 2.60074219 -45.71411133 2.26074219 C-30.49011143 0.13685692 -15.34959693 -0.05185215 0 0 Z " fill="#2D75CA" transform="translate(250.714111328125,138.7392578125)"/>
<path d="M0 0 C0.66 0.33 1.32 0.66 2 1 C1.68026484 8.33185797 1.21987448 14.31256838 -2 21 C-2.46453975 22.63840667 -2.89888852 24.28550147 -3.3125 25.9375 C-8.51009493 45.52225203 -17.9771666 63.73381364 -30 80 C-30.66 79.67 -31.32 79.34 -32 79 C-29.92692122 74.59340541 -27.21523604 70.62916624 -24.55859375 66.55859375 C-22.88371086 64.0235894 -22.88371086 64.0235894 -22 61 C-21.34 61 -20.68 61 -20 61 C-19.896875 60.278125 -19.79375 59.55625 -19.6875 58.8125 C-18.92875343 55.70853676 -17.677335 53.70954115 -16 51 C-14.98034573 48.67518826 -13.97940398 46.34205301 -13 44 C-12.649375 43.34 -12.29875 42.68 -11.9375 42 C-10.86484836 39.85349222 -10.86484836 39.85349222 -10.1015625 36.8046875 C-9.04582117 33.15826177 -7.7848264 29.6722892 -6.4375 26.125 C-4.71636582 21.37808181 -3.55806712 17.19571638 -3.24609375 12.17578125 C-2.77141112 7.97898406 -1.32609225 3.99495716 0 0 Z " fill="#0B5AC1" transform="translate(446,288)"/>
<path d="M0 0 C0.33 0 0.66 0 1 0 C3.60478874 11.89210095 4.30975773 23.61152501 4.3125 35.75 C4.31572266 36.44157196 4.31894531 37.13314392 4.32226562 37.84567261 C4.35037308 47.73847159 3.53734539 57.23209281 2 67 C1.34 67 0.68 67 0 67 C0.00222061 66.30588516 0.00444122 65.61177032 0.00672913 64.8966217 C0.02685437 58.32131226 0.04203611 51.74601155 0.05181217 45.17067814 C0.05700726 41.79109942 0.06404282 38.41154637 0.07543945 35.03198242 C0.08762633 31.13720025 0.09325609 27.24245408 0.09765625 23.34765625 C0.10281754 22.1473024 0.10797882 20.94694855 0.11329651 19.71022034 C0.11363042 14.66817127 0.04615179 9.73655043 -0.56860352 4.72827148 C-0.71096436 3.49794189 -0.8533252 2.2676123 -1 1 C-0.67 0.67 -0.34 0.34 0 0 Z " fill="#0C5EC0" transform="translate(447,219)"/>
<path d="M0 0 C0 0.66 0 1.32 0 2 C-12.45734641 5.89391006 -25.87627843 5.10848838 -38.82015991 5.17523193 C-40.29025231 5.18327496 -41.76033215 5.19427822 -43.2303772 5.20855713 C-53.64498689 5.29880685 -63.69765567 4.5284221 -74 3 C-74 2.34 -74 1.68 -74 1 C-73.28996826 1.06928711 -72.57993652 1.13857422 -71.84838867 1.20996094 C-62.53351576 2.02978062 -53.26494994 2.21916537 -43.91821289 2.24023438 C-41.33381702 2.24992011 -38.75022566 2.28104817 -36.16601562 2.3125 C-26.77068933 2.36929704 -17.86066899 1.80345989 -8.63020325 -0.03338623 C-3.27059102 -1.09019701 -3.27059102 -1.09019701 0 0 Z " fill="#0A5BC3" transform="translate(297,445)"/>
<path d="M0 0 C0.99 0 1.98 0 3 0 C2.8131665 0.59208252 2.62633301 1.18416504 2.43383789 1.79418945 C-5.22468106 26.60643751 -7.36122698 51.21797859 -8 77 C-8.33 77 -8.66 77 -9 77 C-9.1960938 73.12695376 -9.37408879 69.25348848 -9.53710938 65.37890625 C-9.62250545 63.43187584 -9.7212096 61.48544337 -9.8203125 59.5390625 C-10.13632282 51.79680977 -9.75018946 44.5855039 -8.44458008 36.94311523 C-8.0638433 34.42264193 -7.94673355 32.22039534 -8.0625 29.6875 C-7.99798501 25.8811154 -7.29421404 23.373318 -6 19.8515625 C-4.62219424 15.92266327 -3.47473698 11.9346222 -2.3125 7.9375 C-1.97279175 6.77456421 -1.97279175 6.77456421 -1.6262207 5.58813477 C-1.08269768 3.7258456 -0.54114187 1.86298247 0 0 Z " fill="#074FB6" transform="translate(71,191)"/>
<path d="M0 0 C0.33 0 0.66 0 1 0 C1.01981934 0.57967529 1.03963867 1.15935059 1.06005859 1.7565918 C1.15572601 4.40065937 1.26523453 7.0439817 1.375 9.6875 C1.42140625 11.05551758 1.42140625 11.05551758 1.46875 12.45117188 C1.6186596 19.01306375 1.6186596 19.01306375 4 25 C9.32254289 26.90275953 15.43501651 26.18448211 21 26.1875 C22.18851562 26.19974609 23.37703125 26.21199219 24.6015625 26.22460938 C25.74367188 26.22654297 26.88578125 26.22847656 28.0625 26.23046875 C29.62677734 26.23663208 29.62677734 26.23663208 31.22265625 26.24291992 C33.99861489 26.00012115 35.63769554 25.42934999 38 24 C38 24.99 38 25.98 38 27 C33.27618879 30.14920747 28.30454499 29.32826205 22.75 29.3125 C21.06970703 29.33666992 21.06970703 29.33666992 19.35546875 29.36132812 C13.12155614 29.36500812 8.50068679 29.01265938 3 26 C3 25.34 3 24.68 3 24 C2.34 24 1.68 24 1 24 C1 23.01 1 22.02 1 21 C0.34 21 -0.32 21 -1 21 C-1.02888146 17.68751813 -1.04675799 14.37506833 -1.0625 11.0625 C-1.07087891 10.11697266 -1.07925781 9.17144531 -1.08789062 8.19726562 C-1.09111328 7.29814453 -1.09433594 6.39902344 -1.09765625 5.47265625 C-1.10289307 4.64000244 -1.10812988 3.80734863 -1.11352539 2.94946289 C-1 1 -1 1 0 0 Z " fill="#3577C4" transform="translate(343,339)"/>
<path d="M0 0 C4.88890147 -0.05007936 9.77764802 -0.08603494 14.66674805 -0.10986328 C16.32400113 -0.11981483 17.98123715 -0.13338093 19.63842773 -0.15087891 C29.65403187 -0.25385155 39.13824999 0.04287454 49 2 C49 2.66 49 3.32 49 4 C44.11078756 3.90522841 39.22200038 3.79889115 34.33325195 3.68261719 C32.67609224 3.64473925 31.01886174 3.60982134 29.36157227 3.578125 C19.40026718 3.38534498 9.81243533 2.86830349 0 1 C0 0.67 0 0.34 0 0 Z " fill="#0F60C2" transform="translate(239,61)"/>
<path d="M0 0 C3.31843925 2.92803463 5.5849454 5.79238551 7.8125 9.625 C13.08545788 18.68538701 19.48582722 26.75621284 26.3190918 34.6730957 C28.37240295 37.05284391 30.2532034 39.3798051 32 42 C27.77604752 40.63886645 25.57106374 38.84515115 22.6875 35.5 C21.99011719 34.7059375 21.29273437 33.911875 20.57421875 33.09375 C19 31 19 31 19 29 C18.34 29 17.68 29 17 29 C15.76969274 27.4011809 14.61359837 25.74469415 13.5 24.0625 C11.29021822 20.43229314 11.29021822 20.43229314 8 18 C7.29462223 16.35411853 6.59472404 14.70556011 5.9296875 13.04296875 C4.58626806 10.09083275 2.80512039 7.47657874 0.98828125 4.796875 C0 3 0 3 0 0 Z " fill="#0B55BC" transform="translate(86,349)"/>
<path d="M0 0 C0.66 0.99 1.32 1.98 2 3 C1.113125 3.721875 0.22625 4.44375 -0.6875 5.1875 C-2.73779313 6.89207625 -4.6081754 8.6081754 -6.5 10.5 C-9.19487389 13.19487389 -12.07325129 15.56104274 -15 18 C-15.76054687 18.77988281 -16.52109375 19.55976563 -17.3046875 20.36328125 C-20.09207766 23.09007597 -22.98928769 25.37304568 -26.125 27.6875 C-27.15882813 28.45449219 -28.19265625 29.22148437 -29.2578125 30.01171875 C-31.1445078 31.37970722 -33.06094582 32.70729721 -35 34 C-35.33 33.34 -35.66 32.68 -36 32 C-35.67 31.34 -35.34 30.68 -35 30 C-34.34 30 -33.68 30 -33 30 C-33 29.34 -33 28.68 -33 28 C-32.071875 27.525625 -31.14375 27.05125 -30.1875 26.5625 C-20.19655783 20.8650177 -12.00931138 12.47934356 -4.6484375 3.76953125 C-3 2 -3 2 0 0 Z " fill="#0B53C1" transform="translate(400,384)"/>
<path d="M0 0 C6.24928292 1.11098363 10.14265167 4.17093662 15.15234375 7.9609375 C20.66085173 11.90530124 26.29176171 14.87405894 33 16 C33 16.66 33 17.32 33 18 C34.98 18.66 36.96 19.32 39 20 C39 20.33 39 20.66 39 21 C32.94680106 20.545174 28.79197075 19.26684373 23.5625 16.25 C22.91216797 15.88801514 22.26183594 15.52603027 21.59179688 15.15307617 C20.30449575 14.43529372 19.02003107 13.71239528 17.73876953 12.98388672 C15.51184008 11.72377359 13.2543018 10.52278553 11 9.3125 C7.10885244 7.12695981 3.50939927 4.76271858 0 2 C0 1.34 0 0.68 0 0 Z " fill="#0B5DBF" transform="translate(146,415)"/>
<path d="M0 0 C0.66 0 1.32 0 2 0 C5 6.625 5 6.625 5 10 C5.66 10 6.32 10 7 10 C7.66 11.65 8.32 13.3 9 15 C9.66 14.01 10.32 13.02 11 12 C11.83848804 13.45537568 12.67063934 14.91440373 13.5 16.375 C13.9640625 17.18710938 14.428125 17.99921875 14.90625 18.8359375 C16 21 16 21 16 23 C15.34 23 14.68 23 14 23 C14.60990891 26.55780196 15.5783681 29.6828589 17 33 C13.10944812 29.64980255 11.17932457 26.67400279 9.24609375 21.94921875 C7.21521032 17.14258241 4.90847235 12.4636323 2.64135742 7.76464844 C0 2.21823527 0 2.21823527 0 0 Z " fill="#2370C8" transform="translate(359,187)"/>
<path d="M0 0 C2.47798653 3.71697979 2.782292 7.17651481 3.375 11.5 C4.52249387 19.40087782 6.01047036 27.16671856 7.81787109 34.94335938 C9.10525577 40.68423268 9.10525577 40.68423268 8 44 C1.0493109 31.21569684 -0.61976447 14.32344543 0 0 Z " fill="#0750B6" transform="translate(62,269)"/>
<path d="M0 0 C7.75 -0.125 7.75 -0.125 10 1 C10 3.31 10 5.62 10 8 C10.99 8 11.98 8 13 8 C11.45941767 13.01508715 9.97068161 17.6147081 7 22 C6.67 20.68 6.34 19.36 6 18 C4.68 18.33 3.36 18.66 2 19 C2.63228516 17.66195312 2.63228516 17.66195312 3.27734375 16.296875 C4.09912109 14.54117188 4.09912109 14.54117188 4.9375 12.75 C5.48277344 11.58984375 6.02804688 10.4296875 6.58984375 9.234375 C8.13201021 5.94059351 8.13201021 5.94059351 9 2 C6.03 1.67 3.06 1.34 0 1 C0 0.67 0 0.34 0 0 Z " fill="#2471CA" transform="translate(133,195)"/>
<path d="M0 0 C0.66 0 1.32 0 2 0 C2.23074219 0.76183594 2.46148437 1.52367187 2.69921875 2.30859375 C4.59068466 8.29698977 6.70791229 13.6369921 9.90625 19.0390625 C11.32417268 21.58119531 12.11959267 24.23300553 13 27 C13.53625 27.886875 14.0725 28.77375 14.625 29.6875 C16 32 16 32 16 35 C14.1875 34.4375 14.1875 34.4375 12 33 C10.91698965 30.70401807 9.92203709 28.36522558 9 26 C8.505 25.21625 8.01 24.4325 7.5 23.625 C5.802244 20.653927 4.85306844 17.73858978 3.83203125 14.484375 C2.6412563 10.92882164 1.15805836 7.5072438 -0.328125 4.06640625 C-1 2 -1 2 0 0 Z " fill="#0952C1" transform="translate(70,313)"/>
<path d="M0 0 C0 0.66 0 1.32 0 2 C-5.30588633 3.7195002 -10.18901913 4.43203392 -15.75 4.6875 C-16.53552246 4.7280249 -17.32104492 4.7685498 -18.13037109 4.81030273 C-24.15349911 5.07317287 -30.02369067 4.855639 -36 4 C-36 3.67 -36 3.34 -36 3 C-35.0867395 2.92483154 -35.0867395 2.92483154 -34.1550293 2.84814453 C-19.44593922 1.74314923 -19.44593922 1.74314923 -4.92578125 -0.73046875 C-3 -1 -3 -1 0 0 Z " fill="#0756B9" transform="translate(297,445)"/>
<path d="M0 0 C1.32 0 2.64 0 4 0 C4 0.66 4 1.32 4 2 C15.22 2.33 26.44 2.66 38 3 C29.66770399 7.16614801 18.25435356 5.21115749 9.125 4.1875 C8.44147461 4.11756836 7.75794922 4.04763672 7.05371094 3.97558594 C5.1328125 3.73046875 5.1328125 3.73046875 2 3 C1.34 2.01 0.68 1.02 0 0 Z " fill="#246BC0" transform="translate(134,274)"/>
<path d="M0 0 C5.21140665 0.44352397 9.17987978 1.7885032 13.88671875 4.0625 C15.94477695 5.05032062 15.94477695 5.05032062 18.03515625 5.49609375 C21.36993938 6.35133634 24.056128 8.24499938 27 10 C27 10.66 27 11.32 27 12 C22.51524457 10.62965806 18.21180213 9.20617291 14.0625 7 C9.57952869 4.645308 4.87215831 3.31787889 0 2 C0 1.34 0 0.68 0 0 Z " fill="#0956BE" transform="translate(315,70)"/>
<path d="M0 0 C8.43440131 0.26440129 15.37446149 1.29911788 23 5 C23 5.66 23 6.32 23 7 C14.86579246 5.77409993 6.94952546 4.1142355 -1 2 C-0.67 1.34 -0.34 0.68 0 0 Z " fill="#0A5CC1" transform="translate(291,64)"/>
<path d="M0 0 C0.886875 0.78375 1.77375 1.5675 2.6875 2.375 C5.14920022 4.49802688 7.66309336 6.52279152 10.25390625 8.484375 C10.82858643 8.91959473 11.4032666 9.35481445 11.99536133 9.80322266 C13.14910414 10.6723424 14.30641223 11.53675296 15.4675293 12.39599609 C18.48584314 14.66971772 20.92438516 16.82810972 23 20 C18.83347689 18.58608963 15.97962097 16.57595577 12.625 13.75 C11.67238281 12.94820313 10.71976563 12.14640625 9.73828125 11.3203125 C8.83464844 10.55460937 7.93101562 9.78890625 7 9 C6.25105469 8.39929688 5.50210938 7.79859375 4.73046875 7.1796875 C3.0958801 5.85470525 1.53825182 4.4357017 0 3 C0 2.01 0 1.02 0 0 Z " fill="#0A56B9" transform="translate(122,395)"/>
<path d="M0 0 C0.99 0.33 1.98 0.66 3 1 C3.33 9.91 3.66 18.82 4 28 C3.34 28 2.68 28 2 28 C0.96285478 24.88856433 0.79968139 22.50531904 0.68359375 19.23828125 C0.64169922 18.12001953 0.59980469 17.00175781 0.55664062 15.84960938 C0.51732422 14.68236328 0.47800781 13.51511719 0.4375 12.3125 C0.39431641 11.13365234 0.35113281 9.95480469 0.30664062 8.74023438 C0.20048824 5.82694117 0.09843758 2.91356243 0 0 Z " fill="#4787D1" transform="translate(125,333)"/>
<path d="M0 0 C-1 3 -1 3 -2.54711914 4.05908203 C-4.71391493 5.09311966 -6.88061534 6.12305801 -9.0625 7.125 C-10.17141602 7.66447266 -10.17141602 7.66447266 -11.30273438 8.21484375 C-16.26561522 10.53346 -20.53644513 11.5906985 -26 12 C-20 8 -20 8 -17.203125 7.0703125 C-13.84893547 5.94952234 -10.88509702 4.50556554 -7.75 2.875 C-2.22009569 0 -2.22009569 0 0 0 Z " fill="#0955BF" transform="translate(350,425)"/>
<path d="M0 0 C0.66 0.33 1.32 0.66 2 1 C-5.59 8.59 -13.18 16.18 -21 24 C-21 21 -21 21 -19.64453125 19.38671875 C-19.03996094 18.82597656 -18.43539062 18.26523438 -17.8125 17.6875 C-15.53914319 15.5187176 -13.55338848 13.45032428 -11.5625 11 C-8.36086666 7.25174633 -4.75069761 4.18108232 -1 1 C-0.67 0.67 -0.34 0.34 0 0 Z " fill="#136CD4" transform="translate(130,108)"/>
<path d="M0 0 C-1.09959377 2.5657188 -1.87321342 3.90304556 -4.125 5.625 C-7.0843024 9.3734497 -6.31640839 13.39450006 -6 18 C-8.79282574 15.60084384 -8.98407774 15.12140727 -9.5 11.1875 C-9.34033751 6.37988514 -7.37253755 4.29223904 -4 1 C-2 0 -2 0 0 0 Z " fill="#2D76CA" transform="translate(338,255)"/>
<path d="M0 0 C7.89520997 1.81879183 15.44509488 4.07024349 23 7 C23 7.33 23 7.66 23 8 C14.87907449 7.34508665 7.25941925 5.83735892 0 2 C0 1.34 0 0.68 0 0 Z " fill="#0953BD" transform="translate(186,436)"/>
<path d="M0 0 C0.33 0.99 0.66 1.98 1 3 C-0.375 4.5 -0.375 4.5 -2 6 C-2.66 6 -3.32 6 -4 6 C-4.85892935 15.98650638 -4.85892935 15.98650638 -5 26 C-8.15405759 20.78123804 -7.70755675 14.88463042 -7 9 C-5.47584884 5.237783 -3.71395664 1.85697832 0 0 Z " fill="#2E75C7" transform="translate(137,245)"/>
<path d="M0 0 C0 3 0 3 -1.4375 4.875 C-4.6554833 9.25145728 -4.27592335 15.0554628 -4.5625 20.3125 C-4.60568359 21.05306641 -4.64886719 21.79363281 -4.69335938 22.55664062 C-4.79870432 24.37091464 -4.89978316 26.1854355 -5 28 C-5.33 28 -5.66 28 -6 28 C-6.17471382 24.27142795 -6.28098726 20.54391041 -6.375 16.8125 C-6.42527344 15.75740234 -6.47554688 14.70230469 -6.52734375 13.61523438 C-6.67307052 5.91600315 -6.67307052 5.91600315 -4.63769531 3.14599609 C-2.9765625 1.76171875 -2.9765625 1.76171875 0 0 Z " fill="#2771C5" transform="translate(391,328)"/>
<path d="M0 0 C2.8822106 2.8822106 2.9689061 6.24869013 3.625 10.125 C3.7590625 10.87910156 3.893125 11.63320313 4.03125 12.41015625 C4.36123229 14.27219918 4.68154073 16.13595175 5 18 C4.34 18.33 3.68 18.66 3 19 C2.29853686 16.77518771 1.61434046 14.54492632 0.9375 12.3125 C0.55464844 11.07113281 0.17179687 9.82976562 -0.22265625 8.55078125 C-0.96785758 5.1468214 -0.99851065 3.28440924 0 0 Z " fill="#0956C1" transform="translate(66,294)"/>
<path d="M0 0 C0.33 0.99 0.66 1.98 1 3 C-0.14453125 5.26171875 -0.14453125 5.26171875 -1.8125 7.6875 C-2.35519531 8.49574219 -2.89789063 9.30398438 -3.45703125 10.13671875 C-3.96621094 10.75160156 -4.47539062 11.36648438 -5 12 C-5.66 12 -6.32 12 -7 12 C-7.33 12.99 -7.66 13.98 -8 15 C-8.99 14.67 -9.98 14.34 -11 14 C-10.34 14 -9.68 14 -9 14 C-8.91878906 13.44828125 -8.83757812 12.8965625 -8.75390625 12.328125 C-7.74737871 9.21988451 -6.01640272 7.25788265 -3.9375 4.75 C-3.20402344 3.85796875 -2.47054688 2.9659375 -1.71484375 2.046875 C-1.14894531 1.37140625 -0.58304687 0.6959375 0 0 Z " fill="#0B59B8" transform="translate(413,368)"/>
<path d="M0 0 C2.91517292 1.07401108 4.77810176 1.77810176 7 4 C7.86625 4.66 8.7325 5.32 9.625 6 C10.40875 6.66 11.1925 7.32 12 8 C12 8.66 12 9.32 12 10 C12.66 10 13.32 10 14 10 C14 10.66 14 11.32 14 12 C10.5222507 10.43988817 7.72775973 8.36827674 4.75 6 C3.85796875 5.29875 2.9659375 4.5975 2.046875 3.875 C1.37140625 3.25625 0.6959375 2.6375 0 2 C0 1.34 0 0.68 0 0 Z " fill="#074EC0" transform="translate(372,99)"/>
<path d="M0 0 C2.25 -0.25 2.25 -0.25 5 0 C7 1.8125 7 1.8125 9 4 C10.63978318 5.04349839 12.30094366 6.05607981 14 7 C13.67 7.99 13.34 8.98 13 10 C12.48050781 9.60167969 11.96101563 9.20335938 11.42578125 8.79296875 C7.71163685 5.97131746 4.01431087 3.38349708 0 1 C0 0.67 0 0.34 0 0 Z " fill="#0A4DB9" transform="translate(354,88)"/>
<path d="M0 0 C0.66 0 1.32 0 2 0 C0.52841629 3.61497739 -1.41462331 5.40591511 -4.5 7.75 C-5.2940625 8.36359375 -6.088125 8.9771875 -6.90625 9.609375 C-9 11 -9 11 -11 11 C-9.5780018 7.4450045 -8.36269949 6.63331118 -5 5 C-4.13375 4.13375 -3.2675 3.2675 -2.375 2.375 C-1.59125 1.59125 -0.8075 0.8075 0 0 Z " fill="#094CC1" transform="translate(138,99)"/>
<path d="M0 0 C-1 2 -1 2 -3.6875 3.125 C-6.9579435 3.98889074 -9.63706182 4.16013991 -13 4 C-13.33 3.34 -13.66 2.68 -14 2 C-9.07262981 0.02905192 -5.21979128 -0.1799928 0 0 Z " fill="#0D5AC2" transform="translate(218,65)"/>
<path d="M0 0 C0.99 0 1.98 0 3 0 C2.54803755 1.60597325 2.08817673 3.20972508 1.625 4.8125 C1.36976562 5.70582031 1.11453125 6.59914062 0.8515625 7.51953125 C0 10 0 10 -2 13 C-3.18414294 9.44757118 -2.69535532 8.30169438 -1.5625 4.8125 C-1.27503906 3.91144531 -0.98757812 3.01039063 -0.69140625 2.08203125 C-0.46324219 1.39496094 -0.23507813 0.70789063 0 0 Z " fill="#0751A8" transform="translate(71,191)"/>
<path d="M0 0 C0.66 0 1.32 0 2 0 C2.89434157 1.40453643 3.76493192 2.82421869 4.625 4.25 C5.11226563 5.03890625 5.59953125 5.8278125 6.1015625 6.640625 C7 9 7 9 6.1484375 11.296875 C5.76945312 11.85890625 5.39046875 12.4209375 5 13 C4.15930585 11.39967863 3.32768495 9.79458829 2.5 8.1875 C1.80390625 6.84751953 1.80390625 6.84751953 1.09375 5.48046875 C0 3 0 3 0 0 Z " fill="#085DB6" transform="translate(422,154)"/>
<path d="M0 0 C0 0.99 0 1.98 0 3 C-0.66 3.66 -1.32 4.32 -2 5 C-2.99 5 -3.98 5 -5 5 C-5.33 6.32 -5.66 7.64 -6 9 C-6.99 9 -7.98 9 -9 9 C-8.63594751 6.29561004 -8.31857318 5.25593617 -6.15234375 3.515625 C-5.42144531 3.09796875 -4.69054687 2.6803125 -3.9375 2.25 C-3.20402344 1.82203125 -2.47054687 1.3940625 -1.71484375 0.953125 C-1.14894531 0.63859375 -0.58304688 0.3240625 0 0 Z " fill="#0A56BB" transform="translate(150,91)"/>
<path d="M0 0 C0.33 0.66 0.66 1.32 1 2 C1.639375 2.28875 2.27875 2.5775 2.9375 2.875 C5.47132226 4.25708487 5.82772574 5.42099662 7 8 C8.5412312 9.70921589 8.5412312 9.70921589 10 11 C6.49411644 10.43601004 5.01017608 9.33036227 2.75 6.625 C2.22921875 6.01914063 1.7084375 5.41328125 1.171875 4.7890625 C0 3 0 3 0 0 Z " fill="#0640C3" transform="translate(401,125)"/>
<path d="M0 0 C7.50769231 -0.36923077 7.50769231 -0.36923077 10 1.5 C10.495 2.2425 10.495 2.2425 11 3 C6.70700357 4.26264601 4.12168689 3.62950412 0 2 C0 1.34 0 0.68 0 0 Z " fill="#084AC7" transform="translate(210,444)"/>
<path d="M0 0 C0 0.66 0 1.32 0 2 C-1.390625 3.32421875 -1.390625 3.32421875 -3.25 4.6875 C-3.85328125 5.14511719 -4.4565625 5.60273438 -5.078125 6.07421875 C-7 7 -7 7 -9.234375 6.64453125 C-9.81703125 6.43183594 -10.3996875 6.21914063 -11 6 C-9.54550599 4.9944239 -8.08627557 3.99569565 -6.625 3 C-5.40683594 2.1646875 -5.40683594 2.1646875 -4.1640625 1.3125 C-2 0 -2 0 0 0 Z " fill="#0A5BBF" transform="translate(363,417)"/>
<path d="M0 0 C1.485 0.99 1.485 0.99 3 2 C3 3.32 3 4.64 3 6 C5.31 6.66 7.62 7.32 10 8 C9.67 8.66 9.34 9.32 9 10 C5.35217412 9.10830923 3.45323095 8.58920024 1.125 5.5625 C0 3 0 3 0 0 Z " fill="#3074C4" transform="translate(201,276)"/>
<path d="M0 0 C0.66 0 1.32 0 2 0 C2.66 3.3 3.32 6.6 4 10 C3.01 10.33 2.02 10.66 1 11 C0 3.375 0 3.375 0 0 Z " fill="#0752B8" transform="translate(444,207)"/>
<path d="M0 0 C-2.06756277 2.7972908 -3.14440371 3.02692273 -6.6875 3.6875 C-7.780625 3.790625 -8.87375 3.89375 -10 4 C-10 3.34 -10 2.68 -10 2 C-6.49223216 0.39644899 -3.85645121 -0.22036864 0 0 Z " fill="#0958BA" transform="translate(322,438)"/>
<path d="M0 0 C-4.455 2.97 -4.455 2.97 -9 6 C-9.33 5.01 -9.66 4.02 -10 3 C-3.375 -1.125 -3.375 -1.125 0 0 Z " fill="#094ABA" transform="translate(162,86)"/>
<path d="M0 0 C3.91211733 1.15585285 6.8745041 2.35534962 10 5 C9.67 5.66 9.34 6.32 9 7 C7.68176698 6.40844669 6.37052949 5.80128537 5.0625 5.1875 C4.33160156 4.85105469 3.60070312 4.51460938 2.84765625 4.16796875 C1 3 1 3 0 0 Z " fill="#0953B3" transform="translate(343,81)"/>
<path d="M0 0 C0.99 0.33 1.98 0.66 3 1 C1.02 3.97 -0.96 6.94 -3 10 C-3.66 9.34 -4.32 8.68 -5 8 C-3.35 5.36 -1.7 2.72 0 0 Z " fill="#0950A5" transform="translate(88,155)"/>
<path d="M0 0 C0.66 0 1.32 0 2 0 C5.07692308 5.41538462 5.07692308 5.41538462 4.6875 8.375 C4.460625 8.91125 4.23375 9.4475 4 10 C0 3.375 0 3.375 0 0 Z " fill="#0649B4" transform="translate(428,165)"/>
<path d="M0 0 C0.66 0 1.32 0 2 0 C4.04169485 2.90548882 5 4.40142046 5 8 C3.0625 7.375 3.0625 7.375 1 6 C0.25 2.875 0.25 2.875 0 0 Z " fill="#0B55BB" transform="translate(81,340)"/>
<path d="M0 0 C0.33 0 0.66 0 1 0 C1.36923077 7.38461538 1.36923077 7.38461538 -0.5 10.5 C-0.995 10.995 -1.49 11.49 -2 12 C-1.85831863 10.56208484 -1.71148957 9.1246763 -1.5625 7.6875 C-1.48128906 6.88699219 -1.40007812 6.08648437 -1.31640625 5.26171875 C-1 3 -1 3 0 0 Z " fill="#0859B4" transform="translate(68,202)"/>
<path d="M0 0 C1 4 1 4 0.22265625 5.921875 C-0.8515625 7.61458333 -1.92578125 9.30729167 -3 11 C-3.66 10.67 -4.32 10.34 -5 10 C-3.35 6.7 -1.7 3.4 0 0 Z " fill="#3679C5" transform="translate(174,181)"/>
<path d="M0 0 C0.66 0.33 1.32 0.66 2 1 C1.67 3.97 1.34 6.94 1 10 C-1 8 -1 8 -1.1875 5 C-1 2 -1 2 0 0 Z " fill="#0F61BE" transform="translate(444,296)"/>
<path d="M0 0 C0.66 0.66 1.32 1.32 2 2 C-1.44069624 4.29379749 -2.72290301 5 -7 5 C-6.67 4.01 -6.34 3.02 -6 2 C-2.9375 0.8125 -2.9375 0.8125 0 0 Z " fill="#0651A8" transform="translate(182,74)"/>
<path d="M0 0 C1.98 0 3.96 0 6 0 C6.33 0.99 6.66 1.98 7 3 C4.36 2.67 1.72 2.34 -1 2 C-0.67 1.34 -0.34 0.68 0 0 Z " fill="#0751B2" transform="translate(291,64)"/>
<path d="M0 0 C0.66 0 1.32 0 2 0 C1.67 1.32 1.34 2.64 1 4 C0.34 4 -0.32 4 -1 4 C-1.33 4.99 -1.66 5.98 -2 7 C-2.99 6.67 -3.98 6.34 -5 6 C-4.34 6 -3.68 6 -3 6 C-2.87625 5.38125 -2.7525 4.7625 -2.625 4.125 C-2 2 -2 2 0 0 Z " fill="#0741B9" transform="translate(407,376)"/>
<path d="M0 0 C1.46015291 0.28241641 2.91809793 0.57626614 4.375 0.875 C5.18710938 1.03742188 5.99921875 1.19984375 6.8359375 1.3671875 C9 2 9 2 11 4 C9.54054712 3.91291331 8.08234132 3.80473093 6.625 3.6875 C5.81289062 3.62949219 5.00078125 3.57148438 4.1640625 3.51171875 C2 3 2 3 0 0 Z " fill="#3778C2" transform="translate(149,247)"/>
<path d="M0 0 C0.66 0.33 1.32 0.66 2 1 C-1.465 3.97 -1.465 3.97 -5 7 C-5.66 6.67 -6.32 6.34 -7 6 C-4.69 4.02 -2.38 2.04 0 0 Z " fill="#D4EAF7" transform="translate(177,149)"/>
<path d="M0 0 C0.33 0.99 0.66 1.98 1 3 C-0.65 4.32 -2.3 5.64 -4 7 C-4.33 6.34 -4.66 5.68 -5 5 C-3.35 3.35 -1.7 1.7 0 0 Z " fill="#0D63BF" transform="translate(390,394)"/>
<path d="M0 0 C2 1 2 1 2 1 Z " fill="#0000FF" transform="translate(225,449)"/>
<path d="" fill="#00FFFF" transform="translate(0,0)"/>
<path d="M0 0 C2 1 2 1 2 1 Z " fill="#0000FF" transform="translate(108,123)"/>
<path d="" fill="#0000FF" transform="translate(0,0)"/>
<path d="" fill="#0000FF" transform="translate(0,0)"/>
<path d="" fill="#0000FF" transform="translate(0,0)"/>
<path d="" fill="#0000FF" transform="translate(0,0)"/>
<path d="" fill="#0000FF" transform="translate(0,0)"/>
<path d="" fill="#0000FF" transform="translate(0,0)"/>
<path d="" fill="#0000FF" transform="translate(0,0)"/>
<path d="" fill="#0000FF" transform="translate(0,0)"/>
<path d="" fill="#0000FF" transform="translate(0,0)"/>
<path d="" fill="#0000FF" transform="translate(0,0)"/>
<path d="" fill="#0000FF" transform="translate(0,0)"/>
<path d="" fill="#0000FF" transform="translate(0,0)"/>
<path d="" fill="#0000FF" transform="translate(0,0)"/>
<path d="" fill="#0000FF" transform="translate(0,0)"/>
<path d="" fill="#00FFFF" transform="translate(0,0)"/>
<path d="" fill="#0000FF" transform="translate(0,0)"/>
<path d="" fill="#00FFFF" transform="translate(0,0)"/>
<path d="" fill="#0000FF" transform="translate(0,0)"/>
<path d="" fill="#00FFFF" transform="translate(0,0)"/>
<path d="" fill="#0000FF" transform="translate(0,0)"/>
<path d="" fill="#0000FF" transform="translate(0,0)"/>
<path d="" fill="#0000FF" transform="translate(0,0)"/>
<path d="" fill="#00FFFF" transform="translate(0,0)"/>
<path d="" fill="#0000FF" transform="translate(0,0)"/>
<path d="" fill="#0000FF" transform="translate(0,0)"/>
<path d="" fill="#0000FF" transform="translate(0,0)"/>
<path d="" fill="#0000FF" transform="translate(0,0)"/>
<path d="" fill="#0000FF" transform="translate(0,0)"/>
<path d="" fill="#0000FF" transform="translate(0,0)"/>
<path d="" fill="#0000FF" transform="translate(0,0)"/>
<path d="" fill="#0000FF" transform="translate(0,0)"/>
<path d="" fill="#0000FF" transform="translate(0,0)"/>
<path d="" fill="#0000FF" transform="translate(0,0)"/>
<path d="" fill="#0000FF" transform="translate(0,0)"/>
<path d="" fill="#0000FF" transform="translate(0,0)"/>
<path d="" fill="#0000FF" transform="translate(0,0)"/>
<path d="" fill="#0000FF" transform="translate(0,0)"/>
<path d="" fill="#0000FF" transform="translate(0,0)"/>
<path d="" fill="#0000FF" transform="translate(0,0)"/>
<path d="" fill="#0000FF" transform="translate(0,0)"/>
<path d="" fill="#0000FF" transform="translate(0,0)"/>
<path d="" fill="#0000FF" transform="translate(0,0)"/>
<path d="" fill="#0000FF" transform="translate(0,0)"/>
<path d="" fill="#0000FF" transform="translate(0,0)"/>
<path d="" fill="#0000FF" transform="translate(0,0)"/>
<path d="" fill="#0000FF" transform="translate(0,0)"/>
<path d="" fill="#0000FF" transform="translate(0,0)"/>
<path d="" fill="#0000FF" transform="translate(0,0)"/>
<path d="" fill="#0000FF" transform="translate(0,0)"/>
<path d="" fill="#0000FF" transform="translate(0,0)"/>
<path d="" fill="#0000FF" transform="translate(0,0)"/>
<path d="" fill="#0000FF" transform="translate(0,0)"/>
<path d="" fill="#0000FF" transform="translate(0,0)"/>
<path d="" fill="#0000FF" transform="translate(0,0)"/>
<path d="" fill="#0000FF" transform="translate(0,0)"/>
<path d="" fill="#0000FF" transform="translate(0,0)"/>
<path d="" fill="#0000FF" transform="translate(0,0)"/>
<path d="" fill="#0000FF" transform="translate(0,0)"/>
<path d="" fill="#0000FF" transform="translate(0,0)"/>
<path d="" fill="#0000FF" transform="translate(0,0)"/>
<path d="" fill="#0000FF" transform="translate(0,0)"/>
<path d="" fill="#0000FF" transform="translate(0,0)"/>
<path d="" fill="#0000FF" transform="translate(0,0)"/>
<path d="" fill="#0000FF" transform="translate(0,0)"/>
<path d="" fill="#0000FF" transform="translate(0,0)"/>
<path d="" fill="#0000FF" transform="translate(0,0)"/>
<path d="" fill="#0000FF" transform="translate(0,0)"/>
<path d="" fill="#0000FF" transform="translate(0,0)"/>
<path d="" fill="#0000FF" transform="translate(0,0)"/>
<path d="" fill="#0000FF" transform="translate(0,0)"/>
<path d="" fill="#0000FF" transform="translate(0,0)"/>
<path d="" fill="#0000FF" transform="translate(0,0)"/>
<path d="" fill="#0000FF" transform="translate(0,0)"/>
<path d="" fill="#0000FF" transform="translate(0,0)"/>
</svg>
