<?xml version="1.0" encoding="UTF-8"?>
<svg version="1.1" xmlns="http://www.w3.org/2000/svg" width="180" height="180">
<path d="M0 0 C1.8671875 1.42578125 1.8671875 1.42578125 3.125 2.6875 C3.125 3.3475 3.125 4.0075 3.125 4.6875 C4.61 5.1825 4.61 5.1825 6.125 5.6875 C6.125 6.3475 6.125 7.0075 6.125 7.6875 C6.785 7.6875 7.445 7.6875 8.125 7.6875 C20.23450657 19.47749452 25.3406574 37.66629472 25.5625 54 C25.4600291 72.3618087 19.34040591 87.93616879 7.125 101.6875 C6.31095703 102.62529297 6.31095703 102.62529297 5.48046875 103.58203125 C-1.90176048 111.53903258 -11.53945321 117.47026965 -21.875 120.6875 C-22.82503906 120.98527344 -23.77507812 121.28304687 -24.75390625 121.58984375 C-38.30625383 125.27051888 -52.4949769 124.86875722 -65.875 120.6875 C-66.720625 120.43226563 -67.56625 120.17703125 -68.4375 119.9140625 C-86.14523637 113.72770588 -100.15632109 98.82951706 -108.1875 82.25 C-114.5941412 66.24763397 -115.83634038 45.82158921 -109.04443359 29.71826172 C-105.50986983 21.82385122 -101.59814785 14.2282404 -95.875 7.6875 C-95.215 7.6875 -94.555 7.6875 -93.875 7.6875 C-93.545 6.6975 -93.215 5.7075 -92.875 4.6875 C-92.215 4.6875 -91.555 4.6875 -90.875 4.6875 C-90.875 4.0275 -90.875 3.3675 -90.875 2.6875 C-66.17718164 -21.51137254 -26.55679209 -19.1227605 0 0 Z " fill="#0D6FDC" transform="translate(133.875,35.3125)"/>
<path d="M0 0 C0.89813416 -0.01283524 1.79626831 -0.02567047 2.72161865 -0.03889465 C4.17474457 -0.04997505 4.17474457 -0.04997505 5.65722656 -0.0612793 C6.65739807 -0.06935104 7.65756958 -0.07742279 8.68804932 -0.08573914 C10.8063382 -0.0995729 12.9246493 -0.11029822 15.04296875 -0.11816406 C18.2715925 -0.1353582 21.49918721 -0.17924912 24.72753906 -0.22338867 C26.78742738 -0.23351759 28.84732439 -0.24203307 30.90722656 -0.2487793 C31.86788025 -0.26628738 32.82853394 -0.28379547 33.81829834 -0.30183411 C39.94423396 -0.28215584 43.52785621 0.60947139 48.54785156 4.17700195 C50.18457031 6.0012207 50.18457031 6.0012207 51.23535156 7.86450195 C51.62464844 8.55415039 52.01394531 9.24379883 52.41503906 9.9543457 C57.54785156 20.02527782 57.54785156 20.02527782 57.54785156 25.17700195 C58.20785156 25.17700195 58.86785156 25.17700195 59.54785156 25.17700195 C61.45800781 27.2590332 61.45800781 27.2590332 63.61035156 29.98950195 C64.32320313 30.88282227 65.03605469 31.77614258 65.77050781 32.6965332 C69.49064532 37.88837346 68.76768326 43.41275243 68.79785156 49.55200195 C68.81847656 50.59356445 68.83910156 51.63512695 68.86035156 52.70825195 C68.90884106 62.18794876 68.90884106 62.18794876 65.54785156 66.17700195 C65.21785156 66.50700195 64.88785156 66.83700195 64.54785156 67.17700195 C64.26478922 69.72456299 64.09969371 72.27210217 63.92675781 74.8293457 C63.54785156 77.17700195 63.54785156 77.17700195 61.54785156 79.17700195 C59.23535156 79.44262695 59.23535156 79.44262695 56.54785156 79.42700195 C55.21753906 79.43473633 55.21753906 79.43473633 53.86035156 79.44262695 C51.54785156 79.17700195 51.54785156 79.17700195 49.54785156 77.17700195 C49.54785156 74.53700195 49.54785156 71.89700195 49.54785156 69.17700195 C29.08785156 69.17700195 8.62785156 69.17700195 -12.45214844 69.17700195 C-12.45214844 71.81700195 -12.45214844 74.45700195 -12.45214844 77.17700195 C-14.45214844 79.17700195 -14.45214844 79.17700195 -16.76464844 79.44262695 C-17.65152344 79.4374707 -18.53839844 79.43231445 -19.45214844 79.42700195 C-20.78246094 79.43473633 -20.78246094 79.43473633 -22.13964844 79.44262695 C-24.45214844 79.17700195 -24.45214844 79.17700195 -26.45214844 77.17700195 C-26.75889627 74.74054773 -26.83029736 72.33367924 -26.91308594 69.88012695 C-27.27968135 67.00263945 -27.27968135 67.00263945 -29.45996094 64.5637207 C-32.34332156 59.66200765 -32.0372181 55.32219864 -31.95214844 49.73950195 C-31.97535156 48.22259766 -31.97535156 48.22259766 -31.99902344 46.67504883 C-31.95544188 38.32373194 -30.04904681 34.01942778 -24.45214844 27.80981445 C-20.48420837 23.34588188 -18.66370866 18.17844337 -16.53027344 12.6730957 C-14.33427608 7.33610213 -12.24617515 4.45377021 -7.45214844 1.17700195 C-4.65636695 0.24507479 -2.89533104 0.03610576 0 0 Z " fill="#F8FBFD" transform="translate(71.4521484375,49.822998046875)"/>
<path d="M0 0 C0.86132034 -0.0159874 1.72264069 -0.03197479 2.61006165 -0.04844666 C4.0022718 -0.05649071 4.0022718 -0.05649071 5.42260742 -0.06469727 C6.38075851 -0.07372574 7.33890961 -0.08275421 8.32609558 -0.09205627 C10.35440951 -0.10656773 12.38277034 -0.11544773 14.41113281 -0.11914062 C17.50626136 -0.13101979 20.59938513 -0.18018204 23.6940918 -0.23071289 C25.66608729 -0.24017924 27.63809501 -0.24741326 29.61010742 -0.25219727 C30.53217484 -0.27172958 31.45424225 -0.2912619 32.4042511 -0.31138611 C36.74243584 -0.28110704 39.76417057 -0.13183845 43.22851562 2.63745117 C45.99273529 5.60382492 47.48877782 8.2775548 49.09057617 11.99389648 C49.59331055 13.13213867 50.09604492 14.27038086 50.61401367 15.44311523 C51.71557617 18.30639648 51.71557617 18.30639648 51.71557617 20.30639648 C29.27557617 20.30639648 6.83557617 20.30639648 -16.28442383 20.30639648 C-7.8695182 0.11062297 -7.8695182 0.11062297 0 0 Z " fill="#1272DE" transform="translate(72.284423828125,54.693603515625)"/>
<path d="M0 0 C0.70706085 0.00359528 1.4141217 0.00719055 2.14260864 0.01089478 C3.25473473 0.01067574 3.25473473 0.01067574 4.389328 0.01045227 C6.85130696 0.01115152 9.31321119 0.01894442 11.775177 0.02676392 C13.47768614 0.02862806 15.18019582 0.03005198 16.88270569 0.03105164 C21.37245148 0.03487714 25.86216513 0.0447077 30.35189819 0.05575562 C34.92983566 0.06596903 39.50777831 0.07054911 44.08572388 0.07559204 C53.07467032 0.08632994 62.06359287 0.10340675 71.05252075 0.12442017 C71.61502075 2.06192017 71.61502075 2.06192017 72.05252075 4.12442017 C70.3791608 5.79778012 68.33864166 5.24404912 66.1050415 5.24884033 C65.39798065 5.24524506 64.6909198 5.24164978 63.96243286 5.23794556 C63.22101547 5.23809158 62.47959808 5.23823761 61.7157135 5.23838806 C59.25373454 5.23768882 56.79183032 5.22989591 54.3298645 5.22207642 C52.62735536 5.22021228 50.92484568 5.21878836 49.22233582 5.2177887 C44.73259002 5.21396319 40.24287637 5.20413263 35.75314331 5.19308472 C31.17520584 5.1828713 26.5972632 5.17829123 22.01931763 5.17324829 C13.03037118 5.16251039 4.04144864 5.14543358 -4.94747925 5.12442017 C-5.50997925 3.18692017 -5.50997925 3.18692017 -5.94747925 1.12442017 C-4.27411929 -0.54893979 -2.23360016 0.00479121 0 0 Z " fill="#287DDC" transform="translate(56.947479248046875,107.87557983398438)"/>
<path d="M0 0 C13.2 0 26.4 0 40 0 C40 6 40 6 38.9765625 8.34179688 C36.02331043 10.81937692 33.05763795 10.5727323 29.375 10.53125 C28.2600415 10.53699036 28.2600415 10.53699036 27.12255859 10.54284668 C25.55239506 10.54556636 23.98218627 10.538201 22.41210938 10.52148438 C20.00808756 10.50007203 17.60705382 10.52128034 15.203125 10.546875 C13.67707673 10.54423173 12.15103033 10.53910676 10.625 10.53125 C9.54677979 10.54339539 9.54677979 10.54339539 8.44677734 10.55578613 C5.32761782 10.49715672 3.45410643 10.38096478 1.0234375 8.34179688 C0 6 0 6 0 0 Z " fill="#207ADD" transform="translate(70,91)"/>
<path d="M0 0 C1.58894072 1.58894072 1.16998411 3.24801424 1.1875 5.4375 C1.20167969 6.24058594 1.21585938 7.04367188 1.23046875 7.87109375 C1 10 1 10 -1 12 C-4.1875 12.265625 -4.1875 12.265625 -8 12.25 C-9.258125 12.25515625 -10.51625 12.2603125 -11.8125 12.265625 C-15 12 -15 12 -17 10 C-17.25 7.5 -17.25 7.5 -17 5 C-12.74618009 0.74618009 -5.85661879 -0.58566188 0 0 Z " fill="#1A76DD" transform="translate(133,86)"/>
<path d="M0 0 C5.9479338 0.24277281 10.69931781 2.41576719 16 5 C16.1875 7.375 16.1875 7.375 16 10 C12.41717765 12.38854824 10.68606967 12.26898802 6.4375 12.25 C4.70306641 12.25773437 4.70306641 12.25773437 2.93359375 12.265625 C0 12 0 12 -2 10 C-2.265625 8.125 -2.265625 8.125 -2.25 6 C-2.25515625 5.29875 -2.2603125 4.5975 -2.265625 3.875 C-2 2 -2 2 0 0 Z " fill="#1774DD" transform="translate(48,86)"/>
<path d="M0 0 C1.23556641 0.01740234 1.23556641 0.01740234 2.49609375 0.03515625 C3.32238281 0.04417969 4.14867187 0.05320312 5 0.0625 C5.63808594 0.07410156 6.27617188 0.08570312 6.93359375 0.09765625 C5.18359375 5.84765625 5.18359375 5.84765625 2.93359375 8.09765625 C0.43359375 8.34765625 0.43359375 8.34765625 -2.06640625 8.09765625 C-2.72640625 7.43765625 -3.38640625 6.77765625 -4.06640625 6.09765625 C-3.34205084 0.15794191 -3.34205084 0.15794191 0 0 Z " fill="#ECF4FA" transform="translate(43.06640625,68.90234375)"/>
<path d="M0 0 C6.0546875 -0.1953125 6.0546875 -0.1953125 8 0 C8.66 0.66 9.32 1.32 10 2 C9.625 4.625 9.625 4.625 9 7 C7.02 7.33 5.04 7.66 3 8 C0 3.375 0 3.375 0 0 Z " fill="#F0F6FB" transform="translate(131,69)"/>
<path d="M0 0 C0 3 0 3 -2.16796875 5.35546875 C-3.10253906 6.22816406 -4.03710938 7.10085937 -5 8 C-5.88300781 8.88300781 -6.76601563 9.76601563 -7.67578125 10.67578125 C-10.1171875 13.1171875 -12.55859375 15.55859375 -15 18 C-15.33 17.01 -15.66 16.02 -16 15 C-15.34 14.01 -14.68 13.02 -14 12 C-13.34 12 -12.68 12 -12 12 C-11.67 11.01 -11.34 10.02 -11 9 C-10.34 9 -9.68 9 -9 9 C-9 8.34 -9 7.68 -9 7 C-7.03125 5.2734375 -7.03125 5.2734375 -4.5 3.375 C-3.24703125 2.42753906 -3.24703125 2.42753906 -1.96875 1.4609375 C-0.99421875 0.73777344 -0.99421875 0.73777344 0 0 Z " fill="#0B67C2" transform="translate(52,31)"/>
<path d="M0 0 C0.66 0.99 1.32 1.98 2 3 C2.8353125 4.2375 2.8353125 4.2375 3.6875 5.5 C4.120625 6.325 4.55375 7.15 5 8 C4.67 8.99 4.34 9.98 4 11 C2.5 9.625 2.5 9.625 1 8 C1 7.34 1 6.68 1 6 C0.34 6 -0.32 6 -1 6 C-0.67 4.02 -0.34 2.04 0 0 Z " fill="#448BD8" transform="translate(130,69)"/>
<path d="M0 0 C0.66 0 1.32 0 2 0 C1.34 2.31 0.68 4.62 0 7 C-0.99 7 -1.98 7 -3 7 C-2.01 4.69 -1.02 2.38 0 0 Z " fill="#3682D5" transform="translate(50,69)"/>
</svg>
